<mxfile host="Electron" agent="Mozilla/5.0 (Windows NT 10.0; Win64; x64) AppleWebKit/537.36 (KHTML, like Gecko) draw.io/26.0.9 Chrome/128.0.6613.186 Electron/32.2.5 Safari/537.36" version="26.0.9">
  <diagram name="new UX MSc Dev" id="DKDKvVT1Q9gt-SyOUMTg">
    <mxGraphModel dx="2261" dy="688" grid="1" gridSize="8" guides="1" tooltips="1" connect="1" arrows="1" fold="1" page="1" pageScale="1" pageWidth="827" pageHeight="1169" math="0" shadow="0">
      <root>
        <mxCell id="0" />
        <mxCell id="1" parent="0" />
        <mxCell id="sExQ2e1FXWfIQ1LsxVie-1" value="User Research (30 Credits)" style="rounded=1;whiteSpace=wrap;html=1;fillColor=#dae8fc;strokeColor=#6c8ebf;fontSize=23;" parent="1" vertex="1">
          <mxGeometry x="-574" y="208" width="350" height="64" as="geometry" />
        </mxCell>
        <mxCell id="sExQ2e1FXWfIQ1LsxVie-3" value="Interactive Design&amp;nbsp;&amp;nbsp;(30 Credits)" style="rounded=1;whiteSpace=wrap;html=1;fillColor=#dae8fc;strokeColor=#6c8ebf;fontSize=23;" parent="1" vertex="1">
          <mxGeometry x="-208" y="208" width="400" height="64" as="geometry" />
        </mxCell>
        <mxCell id="sExQ2e1FXWfIQ1LsxVie-4" value="Visual Design (30 Credits)" style="rounded=1;whiteSpace=wrap;html=1;fillColor=#d5e8d4;strokeColor=#82b366;fontSize=23;" parent="1" vertex="1">
          <mxGeometry x="-576" y="128" width="352" height="64" as="geometry" />
        </mxCell>
        <mxCell id="sExQ2e1FXWfIQ1LsxVie-6" value="Dissertation&amp;nbsp; (60 Credits)" style="rounded=1;whiteSpace=wrap;html=1;fillColor=#e1d5e7;strokeColor=#9673a6;fontSize=23;" parent="1" vertex="1">
          <mxGeometry x="-574" y="288" width="766" height="64" as="geometry" />
        </mxCell>
        <mxCell id="sExQ2e1FXWfIQ1LsxVie-13" value="Trimester 2" style="rounded=1;whiteSpace=wrap;html=1;fillColor=#dae8fc;strokeColor=#6c8ebf;fontSize=23;" parent="1" vertex="1">
          <mxGeometry x="-776" y="208" width="190" height="64" as="geometry" />
        </mxCell>
        <mxCell id="sExQ2e1FXWfIQ1LsxVie-14" value="Trimester 1" style="rounded=1;whiteSpace=wrap;html=1;fillColor=#d5e8d4;strokeColor=#82b366;fontSize=23;" parent="1" vertex="1">
          <mxGeometry x="-776" y="128" width="190" height="64" as="geometry" />
        </mxCell>
        <mxCell id="sExQ2e1FXWfIQ1LsxVie-15" value="Trimester 3" style="rounded=1;whiteSpace=wrap;html=1;fillColor=#e1d5e7;strokeColor=#9673a6;fontSize=23;" parent="1" vertex="1">
          <mxGeometry x="-776" y="288" width="190" height="64" as="geometry" />
        </mxCell>
        <mxCell id="sExQ2e1FXWfIQ1LsxVie-16" value="&lt;font style=&quot;font-size: 41px;&quot;&gt;MSc User Experience (UX) Design&lt;/font&gt;" style="text;html=1;align=center;verticalAlign=middle;resizable=0;points=[];autosize=1;strokeColor=none;fillColor=none;" parent="1" vertex="1">
          <mxGeometry x="-586" y="48" width="648" height="72" as="geometry" />
        </mxCell>
        <mxCell id="eueU4j3jYYlcHYJZc4aX-1" value="Computing Fundamentals (30 Credits)" style="rounded=1;whiteSpace=wrap;html=1;fillColor=#d5e8d4;strokeColor=#82b366;fontSize=23;" parent="1" vertex="1">
          <mxGeometry x="-208" y="128" width="400" height="64" as="geometry" />
        </mxCell>
      </root>
    </mxGraphModel>
  </diagram>
</mxfile>
